<?xml version="1.0" ?><!DOCTYPE svg  PUBLIC '-//W3C//DTD SVG 1.1//EN'  'http://www.w3.org/Graphics/SVG/1.1/DTD/svg11.dtd'><svg height="24px" style="enable-background:new 0 0 116 134;" version="1.1" viewBox="0 0 116 134" width="24px" xml:space="preserve" xmlns="http://www.w3.org/2000/svg" xmlns:xlink="http://www.w3.org/1999/xlink"><style type="text/css">
<![CDATA[
	.st0{fill:#fff;}
	.st1{fill:#FFFFFF;}
	.st2{fill:none;}
	.st3{fill-rule:evenodd;clip-rule:evenodd;fill:#FFFFFF;}
]]>
</style><defs/><path fill="#fff" d="M22.4,87.3c-4.5,0-8.1-3.6-8.1-8.1c0-4.5,3.6-8.1,8.1-8.1c4.5,0,8.1,3.6,8.1,8.1C30.5,83.6,26.9,87.3,22.4,87.3L22.4,87.3z   M31.9,89c6.3,0,10.5,5.3,10.5,10.7v17h-6.4v-16.5h-3v16.5H11.7l0-16.5H8.7v16.5H2.2V99.5C2.2,93.7,6.9,89,12.6,89L31.9,89L31.9,89z   M54.6,25.8c-4.5,0-8.1-3.6-8.1-8.1c0-4.5,3.6-8.1,8.1-8.1c4.5,0,8.1,3.6,8.1,8.1C62.7,22.2,59,25.8,54.6,25.8L54.6,25.8z   M64.1,27.5c6.3,0,10.5,5.3,10.5,10.7v17h-6.4V38.7h-3v16.5H43.9V38.7h-3.1v16.5h-6.4V38.1c0-5.9,4.6-10.6,10.4-10.6L64.1,27.5  L64.1,27.5z M40.3,82.8l12-6.9V60.9h4.5v15.1l12,6.9l-2.2,3.9l-12-6.9l-12,6.9L40.3,82.8L40.3,82.8z M96.3,89  c6.3,0,10.5,5.3,10.5,10.7v17h-6.4v-16.5h-3v16.5H76.1l0-16.5H73v16.5h-6.4V99.5C66.6,93.7,71.2,89,77,89L96.3,89L96.3,89z   M86.7,87.3c-4.5,0-8.1-3.6-8.1-8.1c0-4.5,3.6-8.1,8.1-8.1c4.5,0,8.1,3.6,8.1,8.1C94.9,83.6,91.2,87.3,86.7,87.3L86.7,87.3z"/><rect class="st2" height="134" id="_x3C_Slice_x3E__100_" width="116"/></svg>